HIERARCHY
ROOT mixamorig:Hips
{
	OFFSET -0.000008 104.274872 1.554316
	CHANNELS 6 Xposition Yposition Zposition Xrotation Yrotation Zrotation
	JOINT mixamorig:Spine
	{
		OFFSET -0.000005 10.181595 0.131519
		CHANNELS 6 Xposition Yposition Zposition Xrotation Yrotation Zrotation
		JOINT mixamorig:Spine1
		{
			OFFSET -0.000000 9.893959 -1.470707
			CHANNELS 6 Xposition Yposition Zposition Xrotation Yrotation Zrotation
			JOINT mixamorig:Spine2
			{
				OFFSET -0.000000 9.220757 -1.370641
				CHANNELS 6 Xposition Yposition Zposition Xrotation Yrotation Zrotation
				JOINT mixamorig:Neck
				{
					OFFSET 0.000001 16.740417 -2.049036
					CHANNELS 6 Xposition Yposition Zposition Xrotation Yrotation Zrotation
					JOINT mixamorig:Head
					{
						OFFSET 0.000000 9.617874 1.685006
						CHANNELS 6 Xposition Yposition Zposition Xrotation Yrotation Zrotation
						JOINT mixamorig:HeadTop_End
						{
							OFFSET 0.000002 22.037354 7.501101
							CHANNELS 6 Xposition Yposition Zposition Xrotation Yrotation Zrotation
							End Site
							{
								OFFSET 0.000168 2310.654297 -282.823242
							}
						}
					}
				}
				JOINT mixamorig:RightShoulder
				{
					OFFSET -4.569970 11.014908 -2.160885
					CHANNELS 6 Xposition Yposition Zposition Xrotation Yrotation Zrotation
					JOINT mixamorig:RightArm
					{
						OFFSET -10.592851 -0.524811 -2.232101
						CHANNELS 6 Xposition Yposition Zposition Xrotation Yrotation Zrotation
						JOINT mixamorig:RightForeArm
						{
							OFFSET -27.841511 0.000031 -0.000004
							CHANNELS 6 Xposition Yposition Zposition Xrotation Yrotation Zrotation
							JOINT mixamorig:RightHand
							{
								OFFSET -28.328831 -0.000015 0.000015
								CHANNELS 6 Xposition Yposition Zposition Xrotation Yrotation Zrotation
								JOINT mixamorig:RightHandThumb1
								{
									OFFSET -2.464806 -1.573990 2.681852
									CHANNELS 6 Xposition Yposition Zposition Xrotation Yrotation Zrotation
									JOINT mixamorig:RightHandThumb2
									{
										OFFSET -3.215179 -1.872803 1.924282
										CHANNELS 6 Xposition Yposition Zposition Xrotation Yrotation Zrotation
										JOINT mixamorig:RightHandThumb3
										{
											OFFSET -2.654831 -1.527969 1.512609
											CHANNELS 6 Xposition Yposition Zposition Xrotation Yrotation Zrotation
											JOINT mixamorig:RightHandThumb4
											{
												OFFSET -2.018814 -1.152008 1.108052
												CHANNELS 6 Xposition Yposition Zposition Xrotation Yrotation Zrotation
												End Site
												{
													OFFSET -188.809540 -114.533607 132.431396
												}
											}
										}
									}
								}
								JOINT mixamorig:RightHandIndex1
								{
									OFFSET -9.108284 -0.517868 2.259835
									CHANNELS 6 Xposition Yposition Zposition Xrotation Yrotation Zrotation
									JOINT mixamorig:RightHandIndex2
									{
										OFFSET -3.699989 0.000000 0.001215
										CHANNELS 6 Xposition Yposition Zposition Xrotation Yrotation Zrotation
										JOINT mixamorig:RightHandIndex3
										{
											OFFSET -2.850006 0.000031 -0.000522
											CHANNELS 6 Xposition Yposition Zposition Xrotation Yrotation Zrotation
											JOINT mixamorig:RightHandIndex4
											{
												OFFSET -2.772186 -0.000015 -0.000020
												CHANNELS 6 Xposition Yposition Zposition Xrotation Yrotation Zrotation
												End Site
												{
													OFFSET -277.218445 0.000000 -0.050231
												}
											}
										}
									}
								}
								JOINT mixamorig:RightHandMiddle1
								{
									OFFSET -9.532516 -0.000031 -0.000023
									CHANNELS 6 Xposition Yposition Zposition Xrotation Yrotation Zrotation
									JOINT mixamorig:RightHandMiddle2
									{
										OFFSET -3.700005 -0.000015 0.003713
										CHANNELS 6 Xposition Yposition Zposition Xrotation Yrotation Zrotation
										JOINT mixamorig:RightHandMiddle3
										{
											OFFSET -2.949974 0.000015 -0.002054
											CHANNELS 6 Xposition Yposition Zposition Xrotation Yrotation Zrotation
											JOINT mixamorig:RightHandMiddle4
											{
												OFFSET -2.946640 0.000000 -0.000156
												CHANNELS 6 Xposition Yposition Zposition Xrotation Yrotation Zrotation
												End Site
												{
													OFFSET -294.664337 0.000000 -0.113670
												}
											}
										}
									}
								}
								JOINT mixamorig:RightHandRing1
								{
									OFFSET -9.103600 -0.043076 -1.865134
									CHANNELS 6 Xposition Yposition Zposition Xrotation Yrotation Zrotation
									JOINT mixamorig:RightHandRing2
									{
										OFFSET -3.379288 0.000000 -0.001055
										CHANNELS 6 Xposition Yposition Zposition Xrotation Yrotation Zrotation
										JOINT mixamorig:RightHandRing3
										{
											OFFSET -2.889687 -0.000015 0.000379
											CHANNELS 6 Xposition Yposition Zposition Xrotation Yrotation Zrotation
											JOINT mixamorig:RightHandRing4
											{
												OFFSET -2.638809 -0.000015 0.000941
												CHANNELS 6 Xposition Yposition Zposition Xrotation Yrotation Zrotation
												End Site
												{
													OFFSET -263.880371 0.000000 0.516020
												}
											}
										}
									}
								}
								JOINT mixamorig:RightHandPinky1
								{
									OFFSET -8.076683 -0.486710 -3.806280
									CHANNELS 6 Xposition Yposition Zposition Xrotation Yrotation Zrotation
									JOINT mixamorig:RightHandPinky2
									{
										OFFSET -3.600014 -0.000015 -0.003747
										CHANNELS 6 Xposition Yposition Zposition Xrotation Yrotation Zrotation
										JOINT mixamorig:RightHandPinky3
										{
											OFFSET -2.099983 0.000000 -0.005739
											CHANNELS 6 Xposition Yposition Zposition Xrotation Yrotation Zrotation
											JOINT mixamorig:RightHandPinky4
											{
												OFFSET -2.115768 -0.000031 -0.003680
												CHANNELS 6 Xposition Yposition Zposition Xrotation Yrotation Zrotation
												End Site
												{
													OFFSET -211.577087 0.000000 -0.350686
												}
											}
										}
									}
								}
							}
						}
					}
				}
				JOINT mixamorig:LeftShoulder
				{
					OFFSET 4.570447 11.014725 -2.160855
					CHANNELS 6 Xposition Yposition Zposition Xrotation Yrotation Zrotation
					JOINT mixamorig:LeftArm
					{
						OFFSET 10.592371 -0.524597 -2.232119
						CHANNELS 6 Xposition Yposition Zposition Xrotation Yrotation Zrotation
						JOINT mixamorig:LeftForeArm
						{
							OFFSET 27.841532 -0.000031 0.000026
							CHANNELS 6 Xposition Yposition Zposition Xrotation Yrotation Zrotation
							JOINT mixamorig:LeftHand
							{
								OFFSET 28.328846 -0.000061 0.000022
								CHANNELS 6 Xposition Yposition Zposition Xrotation Yrotation Zrotation
								JOINT mixamorig:LeftHandThumb1
								{
									OFFSET 2.466141 -1.576172 2.681732
									CHANNELS 6 Xposition Yposition Zposition Xrotation Yrotation Zrotation
									JOINT mixamorig:LeftHandThumb2
									{
										OFFSET 3.217812 -1.872070 1.916482
										CHANNELS 6 Xposition Yposition Zposition Xrotation Yrotation Zrotation
										JOINT mixamorig:LeftHandThumb3
										{
											OFFSET 2.656029 -1.528778 1.514513
											CHANNELS 6 Xposition Yposition Zposition Xrotation Yrotation Zrotation
											JOINT mixamorig:LeftHandThumb4
											{
												OFFSET 2.020889 -1.154053 1.115139
												CHANNELS 6 Xposition Yposition Zposition Xrotation Yrotation Zrotation
												End Site
												{
													OFFSET 190.885437 -115.081749 130.048782
												}
											}
										}
									}
								}
								JOINT mixamorig:LeftHandIndex1
								{
									OFFSET 9.109314 -0.518021 2.259871
									CHANNELS 6 Xposition Yposition Zposition Xrotation Yrotation Zrotation
									JOINT mixamorig:LeftHandIndex2
									{
										OFFSET 3.699989 0.000000 -0.000322
										CHANNELS 6 Xposition Yposition Zposition Xrotation Yrotation Zrotation
										JOINT mixamorig:LeftHandIndex3
										{
											OFFSET 2.850006 0.000000 0.000352
											CHANNELS 6 Xposition Yposition Zposition Xrotation Yrotation Zrotation
											JOINT mixamorig:LeftHandIndex4
											{
												OFFSET 2.774864 -0.000031 -0.000027
												CHANNELS 6 Xposition Yposition Zposition Xrotation Yrotation Zrotation
												End Site
												{
													OFFSET 277.486267 0.000000 -0.009857
												}
											}
										}
									}
								}
								JOINT mixamorig:LeftHandMiddle1
								{
									OFFSET 9.533394 0.000061 0.000044
									CHANNELS 6 Xposition Yposition Zposition Xrotation Yrotation Zrotation
									JOINT mixamorig:LeftHandMiddle2
									{
										OFFSET 3.699989 -0.000015 -0.000231
										CHANNELS 6 Xposition Yposition Zposition Xrotation Yrotation Zrotation
										JOINT mixamorig:LeftHandMiddle3
										{
											OFFSET 2.949997 -0.000015 -0.000059
											CHANNELS 6 Xposition Yposition Zposition Xrotation Yrotation Zrotation
											JOINT mixamorig:LeftHandMiddle4
											{
												OFFSET 2.952896 0.000031 0.000063
												CHANNELS 6 Xposition Yposition Zposition Xrotation Yrotation Zrotation
												End Site
												{
													OFFSET 295.289337 0.000000 0.022810
												}
											}
										}
									}
								}
								JOINT mixamorig:LeftHandRing1
								{
									OFFSET 9.104523 -0.042999 -1.865074
									CHANNELS 6 Xposition Yposition Zposition Xrotation Yrotation Zrotation
									JOINT mixamorig:LeftHandRing2
									{
										OFFSET 3.150009 -0.000031 0.000043
										CHANNELS 6 Xposition Yposition Zposition Xrotation Yrotation Zrotation
										JOINT mixamorig:LeftHandRing3
										{
											OFFSET 2.949982 -0.000015 0.000040
											CHANNELS 6 Xposition Yposition Zposition Xrotation Yrotation Zrotation
											JOINT mixamorig:LeftHandRing4
											{
												OFFSET 2.644348 0.000000 0.000057
												CHANNELS 6 Xposition Yposition Zposition Xrotation Yrotation Zrotation
												End Site
												{
													OFFSET 264.434631 0.000000 0.012105
												}
											}
										}
									}
								}
								JOINT mixamorig:LeftHandPinky1
								{
									OFFSET 8.077789 -0.486847 -3.806259
									CHANNELS 6 Xposition Yposition Zposition Xrotation Yrotation Zrotation
									JOINT mixamorig:LeftHandPinky2
									{
										OFFSET 3.599953 0.000031 0.014727
										CHANNELS 6 Xposition Yposition Zposition Xrotation Yrotation Zrotation
										JOINT mixamorig:LeftHandPinky3
										{
											OFFSET 2.100021 0.000015 0.007705
											CHANNELS 6 Xposition Yposition Zposition Xrotation Yrotation Zrotation
											JOINT mixamorig:LeftHandPinky4
											{
												OFFSET 2.125504 0.000031 0.007517
												CHANNELS 6 Xposition Yposition Zposition Xrotation Yrotation Zrotation
												End Site
												{
													OFFSET 212.550781 0.000000 0.625752
												}
											}
										}
									}
								}
							}
						}
					}
				}
			}
		}
	}
	JOINT mixamorig:RightUpLeg
	{
		OFFSET -8.207787 -6.751648 -1.599560
		CHANNELS 6 Xposition Yposition Zposition Xrotation Yrotation Zrotation
		JOINT mixamorig:RightLeg
		{
			OFFSET -0.000002 -44.370117 0.345942
			CHANNELS 6 Xposition Yposition Zposition Xrotation Yrotation Zrotation
			JOINT mixamorig:RightFoot
			{
				OFFSET 0.000003 -44.423679 -3.043532
				CHANNELS 6 Xposition Yposition Zposition Xrotation Yrotation Zrotation
				JOINT mixamorig:RightToeBase
				{
					OFFSET -0.000002 -8.728671 10.710558
					CHANNELS 6 Xposition Yposition Zposition Xrotation Yrotation Zrotation
					JOINT mixamorig:RightToe_End
					{
						OFFSET -0.000001 -0.000679 9.278119
						CHANNELS 6 Xposition Yposition Zposition Xrotation Yrotation Zrotation
						End Site
						{
							OFFSET 0.000000 -0.067690 927.812134
						}
					}
				}
			}
		}
	}
	JOINT mixamorig:LeftUpLeg
	{
		OFFSET 8.207793 -6.751686 -1.599556
		CHANNELS 6 Xposition Yposition Zposition Xrotation Yrotation Zrotation
		JOINT mixamorig:LeftLeg
		{
			OFFSET -0.000004 -44.370014 0.346954
			CHANNELS 6 Xposition Yposition Zposition Xrotation Yrotation Zrotation
			JOINT mixamorig:LeftFoot
			{
				OFFSET -0.000001 -44.423672 -3.044401
				CHANNELS 6 Xposition Yposition Zposition Xrotation Yrotation Zrotation
				JOINT mixamorig:LeftToeBase
				{
					OFFSET -0.000002 -8.728669 10.710558
					CHANNELS 6 Xposition Yposition Zposition Xrotation Yrotation Zrotation
					JOINT mixamorig:LeftToe_End
					{
						OFFSET -0.000003 -0.000679 9.278133
						CHANNELS 6 Xposition Yposition Zposition Xrotation Yrotation Zrotation
						End Site
						{
							OFFSET 0.000000 -0.068021 927.813477
						}
					}
				}
			}
		}
	}
}
MOTION
Frames: 3
Frame Time: 0.033333
0.000006 104.270477 1.554256 0.000010 0.000003 -0.000113 -0.000005 10.181587 0.131522 0.000001 -0.000003 0.000084 -0.000000 9.893967 -1.470711 0.000001 0.000000 -0.000000 -0.000000 9.220802 -1.370642 0.000000 -0.000000 -0.000000 0.000001 16.740433 -2.049030 0.000000 -0.000000 -0.000000 0.000000 9.617859 1.685014 0.000000 0.000000 0.000000 0.000002 22.037384 7.501101 0.000000 -0.000000 0.000000 -4.569968 11.014880 -2.160881 0.000008 0.000001 -0.000038 -10.592749 -0.524848 -2.231719 84.153122 72.477944 -66.986247 -27.841484 -0.000018 0.000587 57.094610 110.717271 -76.433252 -28.328835 0.000006 0.000027 -0.000319 -0.000044 0.000006 -2.464473 -1.574156 2.682134 76.636471 -117.871962 125.072949 -3.214924 -1.873049 1.924496 274.089426 -43.128943 323.418828 -2.654619 -1.528271 1.512944 249.483670 -38.914771 307.781028 -2.018829 -1.151992 1.108054 -0.000001 0.000003 -0.000000 -9.108328 -0.517980 2.260271 82.294921 165.384807 -163.271642 -3.700048 -0.000113 0.001634 81.679876 162.111384 -159.374869 -2.850057 -0.000107 -0.000083 261.939257 15.868051 -341.764771 -2.772170 -0.000014 -0.000009 0.000001 0.000002 -0.000001 -9.532535 -0.000176 0.000419 79.877280 166.266776 -163.531476 -3.700049 -0.000088 0.004178 79.455365 161.485165 -157.865862 -2.950039 -0.000129 -0.001624 79.783993 166.441875 -163.817716 -2.946623 0.000002 -0.000153 0.000001 0.000002 -0.000001 -9.103655 -0.043180 -1.864699 81.159163 167.093406 -164.984872 -3.379299 -0.000177 -0.000631 263.301388 9.910098 11.148518 -2.889730 -0.000161 0.000779 264.426949 5.800350 6.432921 -2.638820 -0.000000 0.000929 -0.000000 -0.000000 0.000001 -8.076700 -0.486846 -3.805894 267.655716 12.195993 -347.395524 -3.599988 -0.000226 -0.003335 88.062729 175.974906 -176.137888 -2.100005 -0.000228 -0.005385 268.353488 1.412832 1.251835 -2.115769 -0.000029 -0.003666 -0.000004 -0.000000 -0.000006 4.570446 11.014691 -2.160851 -0.000018 0.000010 -0.000021 10.592514 -0.524549 -2.232377 56.346817 -67.604345 39.453843 27.841745 -0.000058 -0.000096 54.443752 -106.293453 68.923589 28.328838 -0.000013 0.000027 0.000020 -0.000089 0.000000 2.466175 -1.576140 2.681886 47.128859 133.149224 -108.474066 3.217829 -1.871996 1.916549 246.126468 40.064797 54.117433 2.656045 -1.528723 1.514602 55.122034 146.278528 -120.485521 2.020884 -1.154075 1.115145 0.000003 0.000004 0.000002 9.109246 -0.517820 2.260107 71.894250 -162.328612 155.809920 3.699883 0.000220 -0.000097 -297.497386 -156.957652 -217.144418 2.849912 0.000253 0.000581 242.737492 -20.733456 -33.404116 2.774884 -0.000032 -0.000029 0.000001 -0.000002 0.000001 9.533360 0.000246 0.000275 75.409803 -165.911893 161.843218 3.699927 0.000227 0.000030 68.057856 -162.719927 154.637860 2.949955 0.000234 0.000193 247.815710 -13.942053 -20.621886 2.952873 -0.000015 0.000058 -0.000000 0.000003 -0.000000 9.104475 -0.042826 -1.864841 77.953400 -166.441178 163.281833 3.149928 0.000279 0.000287 250.159285 -13.670752 -19.373956 2.949932 0.000282 0.000300 247.408822 -10.100883 -15.096275 2.644325 0.000030 0.000054 -0.000000 0.000000 0.000000 8.077742 -0.486704 -3.806015 87.436564 -165.401200 164.390578 3.599904 0.000257 0.015002 253.218499 -8.217830 -11.519547 2.099968 0.000263 0.007950 246.908224 -5.884712 -9.432823 2.125497 -0.000015 0.007524 0.000001 -0.000001 -0.000000 -8.207786 -6.751667 -1.599560 -0.077001 -0.000003 0.000080 -0.000002 -44.370110 0.345938 0.153719 -0.000000 -0.000000 0.000000 -44.423679 -3.043532 -0.076700 0.000000 -0.000002 -0.000006 -8.728667 10.710559 -0.000009 -0.000000 -0.000000 -0.000001 -0.000679 9.278123 0.000000 -0.000000 -0.000000 8.207792 -6.751710 -1.599556 -0.074518 -0.000003 0.000081 -0.000002 -44.370014 0.346960 0.148822 0.000002 0.000000 -0.000001 -44.423664 -3.044403 -0.074314 0.000000 -0.000002 -0.000004 -8.728671 10.710558 0.000007 -0.000000 -0.000000 0.000000 -0.000680 9.278137 -0.000000 0.000000 -0.000001 
0.000006 104.270477 1.554256 0.000010 0.000003 -0.000113 -0.000005 10.181587 0.131522 0.000001 -0.000003 0.000084 -0.000000 9.893967 -1.470711 0.000001 0.000000 -0.000000 -0.000000 9.220802 -1.370642 0.000000 -0.000000 -0.000000 0.000001 16.740433 -2.049030 0.000000 -0.000000 -0.000000 0.000000 9.617859 1.685014 0.000000 0.000000 0.000000 0.000002 22.037384 7.501101 0.000000 -0.000000 0.000000 -4.569968 11.014880 -2.160881 0.000008 0.000001 -0.000038 -10.592748 -0.524836 -2.231720 81.497161 73.548365 -65.560090 -27.841501 0.000010 0.000581 58.198369 110.167885 -77.134487 -28.328835 0.000022 0.000016 -0.000322 -0.000044 0.000006 -2.464558 -1.574175 2.682272 45.788512 -140.250681 111.988758 -3.214967 -1.873049 1.924597 248.099108 -36.671074 308.961476 -2.654637 -1.528270 1.513017 229.122411 -32.484735 296.491299 -2.018831 -1.151996 1.108061 -0.000001 -0.000002 0.000007 -9.108350 -0.518003 2.260201 96.084718 162.693235 -164.395154 -3.700065 -0.000120 0.001605 99.138843 156.850363 -160.211403 -2.850074 -0.000133 -0.000168 278.852035 19.178273 -343.536877 -2.772172 -0.000019 -0.000001 -0.000001 0.000000 0.000000 -9.532543 -0.000207 0.000320 99.036712 166.659881 -168.527131 -3.700056 -0.000140 0.004091 96.070135 160.796996 -162.744242 -2.950062 -0.000188 -0.001693 94.440582 163.573523 -164.788532 -2.946618 0.000003 -0.000159 -0.000001 -0.000002 -0.000002 -9.103643 -0.043200 -1.864786 97.881535 167.443699 -169.075227 -3.379320 -0.000175 -0.000678 275.139909 11.540143 10.565282 -2.889740 -0.000169 0.000733 274.233133 7.903807 7.374399 -2.638806 -0.000017 0.000950 -0.000001 -0.000000 -0.000001 -8.076704 -0.486863 -3.805959 279.681056 10.748281 -351.003913 -3.599999 -0.000252 -0.003434 98.171818 177.688929 -178.257856 -2.099960 -0.000247 -0.005433 275.445000 -1.280677 -1.351552 -2.115782 -0.000026 -0.003688 -0.000001 -0.000004 -0.000003 4.570446 11.014691 -2.160851 -0.000018 0.000010 -0.000021 10.592514 -0.524566 -2.232374 56.887853 -67.574873 39.846955 27.841736 -0.000057 -0.000094 58.000949 -106.900295 73.575330 28.328831 -0.000013 0.000022 0.000020 -0.000089 0.000000 2.466132 -1.576174 2.681845 119.061467 134.865883 -159.459167 3.217805 -1.872026 1.916542 259.256550 50.910161 49.595759 2.655998 -1.528813 1.514601 39.631111 130.907542 -97.422827 2.020879 -1.154079 1.115150 -0.000001 -0.000002 0.000004 9.109263 -0.517760 2.260108 56.748961 -170.614342 162.730828 3.699895 0.000287 -0.000086 -307.143935 -167.668276 -204.545779 2.849941 0.000324 0.000593 232.463740 -10.716386 -21.552220 2.774881 -0.000045 -0.000002 0.000003 -0.000000 -0.000001 9.533363 0.000353 0.000247 44.609219 -174.127340 165.760317 3.699925 0.000326 -0.000041 40.843479 -172.156393 159.138927 2.949917 0.000320 0.000123 221.582306 -9.809911 -25.476635 2.952881 -0.000030 0.000030 0.000001 -0.000000 -0.000000 9.104504 -0.042675 -1.864872 43.269003 -175.814930 169.469766 3.149946 0.000368 0.000234 218.377568 -6.172058 -17.615626 2.949880 0.000374 0.000254 218.305810 -9.551177 -27.052860 2.644318 0.000046 0.000053 -0.000000 -0.000000 -0.000000 8.077741 -0.486552 -3.806042 42.955572 -175.188424 166.787072 3.599955 0.000371 0.014901 211.203246 -0.631375 -3.720381 2.099948 0.000428 0.007845 202.428161 -2.359593 -13.628452 2.125502 -0.000015 0.007511 -0.000002 0.000000 0.000001 -8.207786 -6.751667 -1.599560 -0.077001 -0.000003 0.000080 -0.000002 -44.370110 0.345938 0.153719 -0.000000 -0.000000 0.000000 -44.423679 -3.043532 -0.076700 0.000000 -0.000002 -0.000006 -8.728667 10.710559 -0.000009 -0.000000 -0.000000 -0.000001 -0.000679 9.278123 0.000000 -0.000000 -0.000000 8.207792 -6.751710 -1.599556 -0.074518 -0.000003 0.000081 -0.000002 -44.370014 0.346960 0.148822 0.000002 0.000000 -0.000001 -44.423664 -3.044403 -0.074314 0.000000 -0.000002 -0.000004 -8.728671 10.710558 0.000007 -0.000000 -0.000000 0.000000 -0.000680 9.278137 -0.000000 0.000000 -0.000001 
0.000006 104.270477 1.554256 0.000010 0.000003 -0.000113 -0.000005 10.181587 0.131522 0.000001 -0.000003 0.000084 -0.000000 9.893967 -1.470711 0.000001 0.000000 -0.000000 -0.000000 9.220802 -1.370642 0.000000 -0.000000 -0.000000 0.000001 16.740433 -2.049030 0.000000 -0.000000 -0.000000 0.000000 9.617859 1.685014 0.000000 0.000000 0.000000 0.000002 22.037384 7.501101 0.000000 -0.000000 0.000000 -4.569968 11.014880 -2.160881 0.000008 0.000001 -0.000038 -10.592749 -0.524844 -2.231714 79.823751 74.391135 -64.816624 -27.841492 0.000013 0.000579 58.039772 109.566883 -76.330724 -28.328842 0.000007 0.000021 -0.000322 -0.000045 0.000006 -2.464433 -1.574057 2.682324 -3.423578 -133.152366 55.211148 -3.214890 -1.873018 1.924605 236.373832 -47.609475 294.241462 -2.654619 -1.528248 1.513023 224.967143 -34.005845 292.122328 -2.018835 -1.152008 1.108059 -0.000004 -0.000002 0.000005 -9.108317 -0.517885 2.260363 56.157238 161.440906 -145.905381 -3.699903 0.000099 0.001823 32.975549 146.847619 -89.666785 -2.849893 0.000129 0.000056 201.511290 28.896744 -252.798388 -2.772162 0.000002 -0.000034 -0.000000 0.000001 -0.000000 -9.532544 -0.000207 0.000352 88.614854 171.061719 -170.746000 -3.700050 -0.000101 0.004169 78.613483 161.811662 -157.935024 -2.950027 -0.000128 -0.001565 75.016958 162.157529 -156.888270 -2.946622 0.000011 -0.000160 -0.000001 0.000000 -0.000001 -9.103645 -0.043217 -1.864786 95.502102 170.803633 -171.670644 -3.379315 -0.000134 -0.000632 265.802221 12.771171 13.746099 -2.889746 -0.000138 0.000806 261.512862 9.925650 11.545065 -2.638806 -0.000030 0.000947 -0.000006 0.000004 -0.000002 -8.076697 -0.486875 -3.805990 281.622005 7.338733 -354.099628 -3.599994 -0.000247 -0.003436 94.411499 179.337641 -179.674096 -2.099972 -0.000220 -0.005384 266.666923 -1.757026 -2.082212 -2.115768 -0.000041 -0.003671 0.000001 -0.000000 -0.000003 4.570446 11.014691 -2.160851 -0.000018 0.000010 -0.000021 10.592513 -0.524541 -2.232375 57.286904 -67.675987 40.223059 27.841732 -0.000051 -0.000105 57.728793 -106.699310 73.066331 28.328831 -0.000028 0.000036 0.000021 -0.000088 0.000000 2.466136 -1.576181 2.681846 115.984057 134.617073 -157.547056 3.217792 -1.872026 1.916545 252.357376 50.646102 54.673168 2.655971 -1.528840 1.514610 23.758810 131.671799 -81.986340 2.020891 -1.154078 1.115150 0.000000 -0.000003 0.000003 9.109244 -0.517701 2.260075 44.487802 -169.967304 155.791342 3.699901 0.000311 -0.000141 -322.269307 -169.316223 -210.634373 2.849917 0.000385 0.000520 211.675526 -7.977828 -27.617576 2.774895 -0.000031 -0.000026 0.000000 0.000001 -0.000000 9.533346 0.000396 0.000228 36.302992 -173.353999 159.930724 3.699897 0.000345 -0.000046 33.716587 -172.142979 154.467515 2.949919 0.000341 0.000109 211.238176 -7.261333 -25.581591 2.952860 -0.000015 0.000044 0.000002 0.000000 -0.000001 9.104497 -0.042670 -1.864898 35.758103 -175.588618 166.378490 3.149921 0.000412 0.000246 216.154628 -7.763688 -23.490320 2.949887 0.000366 0.000249 217.630891 -8.602157 -24.897773 2.644318 0.000030 0.000068 -0.000001 -0.000000 -0.000000 8.077740 -0.486508 -3.806085 35.491842 -174.890559 162.924915 3.599944 0.000398 0.014904 209.600570 -1.019001 -5.372119 2.099993 0.000404 0.007860 207.425004 -0.348860 -3.043938 2.125498 -0.000002 0.007501 -0.000003 -0.000001 -0.000001 -8.207786 -6.751667 -1.599560 -0.077001 -0.000003 0.000080 -0.000002 -44.370110 0.345938 0.153719 -0.000000 -0.000000 0.000000 -44.423679 -3.043532 -0.076700 0.000000 -0.000002 -0.000006 -8.728667 10.710559 -0.000009 -0.000000 -0.000000 -0.000001 -0.000679 9.278123 0.000000 -0.000000 -0.000000 8.207792 -6.751710 -1.599556 -0.074518 -0.000003 0.000081 -0.000002 -44.370014 0.346960 0.148822 0.000002 0.000000 -0.000001 -44.423664 -3.044403 -0.074314 0.000000 -0.000002 -0.000004 -8.728671 10.710558 0.000007 -0.000000 -0.000000 0.000000 -0.000680 9.278137 -0.000000 0.000000 -0.000001 
